<svg width="600" height="700" viewBox="0 0 600 700" fill="none" xmlns="http://www.w3.org/2000/svg">
<rect x="5" y="5" width="590" height="690" rx="45" fill="#222222" stroke="#828282" stroke-width="10"/>
<path d="M323.704 161.701C324.386 156.22 329.388 152.305 334.827 153.26C359.744 157.634 383.637 166.701 405.222 180.011C429.647 195.073 450.546 215.214 466.498 239.068C482.45 262.922 493.082 289.929 497.672 318.256C502.262 346.582 500.703 375.565 493.1 403.236C485.497 430.907 472.029 456.617 453.61 478.622C435.191 500.626 412.252 518.41 386.351 530.764C360.451 543.118 332.195 549.754 303.502 550.221C278.147 550.634 252.976 546.22 229.322 537.249C224.158 535.29 221.859 529.369 224.073 524.309C226.288 519.25 232.176 516.971 237.35 518.901C258.366 526.738 280.691 530.59 303.177 530.224C329 529.803 354.43 523.831 377.741 512.712C401.051 501.593 421.696 485.588 438.274 465.784C454.851 445.98 466.972 422.841 473.815 397.937C480.658 373.033 482.061 346.949 477.93 321.455C473.799 295.961 464.23 271.654 449.873 250.186C435.516 228.718 416.707 210.59 394.724 197.035C375.582 185.231 354.424 177.135 332.354 173.134C326.919 172.149 323.022 167.182 323.704 161.701Z" fill="#7255EE"/>
<path d="M470.424 455.318C412.395 549.304 289.163 578.453 195.177 520.424C101.191 462.395 72.0417 339.163 130.071 245.177C188.1 151.191 311.332 122.042 405.318 180.071C499.304 238.1 528.453 361.332 470.424 455.318ZM147.088 255.684C94.8623 340.271 121.096 451.181 205.684 503.407C290.271 555.633 401.181 529.399 453.407 444.811C505.633 360.224 479.399 249.314 394.811 197.088C310.224 144.862 199.314 171.096 147.088 255.684Z" fill="#7255EE" fill-opacity="0.3"/>
<path d="M145.225 431.571C100.235 346.031 133.107 240.216 218.647 195.225C304.187 150.235 410.003 183.107 454.993 268.647C499.983 354.187 467.111 460.003 381.571 504.993C296.031 549.983 190.216 517.111 145.225 431.571ZM431.76 280.867C393.519 208.158 303.575 180.216 230.867 218.458C158.158 256.7 130.216 346.643 168.458 419.352C206.7 492.061 296.643 520.002 369.352 481.76C442.061 443.519 470.002 353.575 431.76 280.867Z" fill="#2F96FD" fill-opacity="0.3"/>
<path d="M442.128 266.111C446.882 263.3 448.48 257.148 445.401 252.563C430.034 229.674 409.446 210.697 385.28 197.234C361.114 183.77 334.143 176.251 306.593 175.229C301.074 175.025 296.684 179.621 296.795 185.142L296.921 191.391C297.032 196.913 301.602 201.264 307.119 201.524C330.016 202.604 352.402 208.965 372.505 220.165C392.607 231.365 409.797 247.053 422.765 265.954C425.89 270.508 431.995 272.105 436.749 269.293L442.128 266.111Z" fill="#2F96FD"/>
<path d="M356.49 142.03C357.9 136.871 363.233 133.812 368.326 135.442C404.288 146.954 436.829 167.35 462.9 194.808C491.196 224.611 510.79 261.594 519.554 301.744C528.319 341.895 525.92 383.679 512.617 422.562C499.315 461.446 475.617 495.943 444.096 522.311C412.574 548.679 374.433 565.91 333.811 572.135C293.19 578.36 251.639 573.34 213.668 557.621C175.697 541.902 142.757 516.083 118.422 482.967C96.0004 452.456 81.6727 416.824 76.6949 379.394C75.9899 374.093 79.9432 369.384 85.2697 368.908C90.5962 368.432 95.2768 372.369 96.0033 377.667C100.652 411.573 113.701 443.839 134.027 471.5C156.268 501.765 186.373 525.361 221.076 539.728C255.778 554.094 293.753 558.681 330.878 552.993C368.003 547.304 402.862 531.555 431.67 507.457C460.478 483.358 482.137 451.83 494.294 416.294C506.452 380.757 508.644 342.569 500.634 305.875C492.624 269.18 474.716 235.38 448.856 208.143C425.221 183.25 395.767 164.707 363.215 154.142C358.129 152.491 355.081 147.188 356.49 142.03Z" fill="#00D674"/>
<path d="M523.674 327.943C535.707 451.623 445.2 561.64 321.519 573.674C197.839 585.707 87.8219 495.2 75.7885 371.519C63.755 247.839 154.262 137.822 277.943 125.788C401.623 113.755 511.64 204.262 523.674 327.943ZM95.0634 369.644C106.061 482.679 206.609 565.396 319.644 554.399C432.679 543.401 515.396 442.853 504.399 329.818C493.401 216.783 392.853 134.066 279.818 145.063C166.783 156.061 84.0657 256.609 95.0634 369.644Z" fill="#00D674" fill-opacity="0.3"/>
<path d="M497.95 63.46H496.18C495.5 63.46 494.97 63.24 494.59 62.8C494.23 62.36 494.05 61.76 494.05 61H499.45C499.83 61 500.14 61.13 500.38 61.39C500.64 61.63 500.77 61.92 500.77 62.26V79.93C500.77 80.69 500.53 81.27 500.05 81.67C499.57 82.07 498.87 82.27 497.95 82.27V63.46ZM507.823 63.46H506.053C505.373 63.46 504.843 63.24 504.463 62.8C504.103 62.36 503.923 61.76 503.923 61H509.323C509.703 61 510.013 61.13 510.253 61.39C510.513 61.63 510.643 61.92 510.643 62.26V79.93C510.643 80.69 510.403 81.27 509.923 81.67C509.443 82.07 508.743 82.27 507.823 82.27V63.46Z" fill="white"/>
<path d="M176.8 339.76C176.8 339.253 176.987 338.84 177.36 338.52C177.733 338.173 178.187 338 178.72 338H196.44C196.44 339.12 196.213 339.947 195.76 340.48C195.307 341.013 194.6 341.28 193.64 341.28H180.56V350.24H191.76C191.76 351.36 191.533 352.187 191.08 352.72C190.627 353.253 189.933 353.52 189 353.52H180.56V362.72H194.48C195.413 362.72 196.107 362.987 196.56 363.52C197.013 364.053 197.24 364.88 197.24 366H178.72C178.187 366 177.733 365.84 177.36 365.52C176.987 365.173 176.8 364.747 176.8 364.24V339.76ZM201.839 340.88C201.839 339.867 202.146 339.08 202.759 338.52C203.399 337.933 204.279 337.64 205.399 337.64L220.919 361.24L221.199 361L220.039 359.08V337.64C221.266 337.64 222.186 337.907 222.799 338.44C223.439 338.973 223.759 339.747 223.759 340.76V363.4C223.759 364.253 223.452 364.96 222.839 365.52C222.252 366.08 221.492 366.36 220.559 366.36L204.679 342.24L204.399 342.48L205.559 344.4V363.24C205.559 364.253 205.239 365.027 204.599 365.56C203.986 366.093 203.066 366.36 201.839 366.36V340.88ZM236.723 341.32H226.963C226.963 339.107 228.003 338 230.083 338H250.203C250.203 340.213 249.163 341.32 247.083 341.32H240.483V363.24C240.483 364.253 240.163 365.027 239.523 365.56C238.883 366.093 237.949 366.36 236.723 366.36V341.32ZM254.417 339.76C254.417 339.253 254.591 338.84 254.937 338.52C255.311 338.173 255.777 338 256.337 338H267.377C269.964 338 272.017 338.76 273.537 340.28C275.084 341.773 275.857 343.773 275.857 346.28C275.857 349.427 274.484 351.653 271.737 352.96V353.08C272.937 353.587 273.857 354.36 274.497 355.4C275.137 356.413 275.457 357.653 275.457 359.12V363.24C275.457 364.253 275.137 365.027 274.497 365.56C273.857 366.093 272.924 366.36 271.697 366.36V359.36C271.697 357.787 271.337 356.6 270.617 355.8C269.924 354.973 268.884 354.56 267.497 354.56H258.137V363.24C258.137 364.253 257.817 365.027 257.177 365.56C256.564 366.093 255.644 366.36 254.417 366.36V339.76ZM267.257 351.32C268.724 351.32 269.884 350.867 270.737 349.96C271.617 349.053 272.057 347.813 272.057 346.24C272.057 344.64 271.644 343.413 270.817 342.56C269.991 341.707 268.804 341.28 267.257 341.28H258.137V351.32H267.257ZM288.221 355.84L278.261 338.12C278.448 337.987 278.728 337.88 279.101 337.8C279.501 337.693 279.874 337.64 280.221 337.64C281.581 337.64 282.554 338.213 283.141 339.36L289.981 352.2L289.141 353.88L289.421 354.04L297.021 339.36C297.634 338.213 298.621 337.64 299.981 337.64C300.328 337.64 300.688 337.693 301.061 337.8C301.461 337.88 301.754 337.987 301.941 338.12L291.981 355.84V363.24C291.981 364.253 291.661 365.027 291.021 365.56C290.381 366.093 289.448 366.36 288.221 366.36V355.84Z" fill="#FFC600"/>
<path d="M326.039 366.36C325.079 366.36 324.292 366.133 323.679 365.68C323.066 365.2 322.652 364.533 322.439 363.68L315.839 338C316.239 337.76 316.746 337.64 317.359 337.64C318.132 337.64 318.786 337.84 319.319 338.24C319.852 338.613 320.199 339.133 320.359 339.8L324.719 358.76L324.079 361.12L324.319 361.2L330.759 338.88C330.866 338.48 331.066 338.173 331.359 337.96C331.679 337.747 332.052 337.64 332.479 337.64C332.879 337.64 333.239 337.747 333.559 337.96C333.879 338.173 334.092 338.48 334.199 338.88L339.759 358.92L339.199 361.36L339.439 361.44L344.599 339.8C344.759 339.133 345.092 338.613 345.599 338.24C346.132 337.84 346.772 337.64 347.519 337.64C348.132 337.64 348.666 337.76 349.119 338L342.519 363.68C342.306 364.533 341.879 365.2 341.239 365.68C340.626 366.133 339.839 366.36 338.879 366.36L332.039 342.16L331.799 342.24L332.319 344.12L326.039 366.36ZM357.346 366.36C355.053 366.36 353.2 365.747 351.786 364.52C350.4 363.293 349.706 361.68 349.706 359.68C349.706 357.653 350.44 356.027 351.906 354.8C353.373 353.547 355.306 352.92 357.706 352.92C360.266 352.92 362.373 353.827 364.026 355.64L364.186 355.48C363.893 355.16 363.56 354.827 363.186 354.48V352.8C363.186 351.44 362.76 350.387 361.906 349.64C361.053 348.893 359.84 348.52 358.266 348.52C355.466 348.52 353.466 349.627 352.266 351.84C351.84 351.627 351.48 351.347 351.186 351C350.92 350.627 350.786 350.253 350.786 349.88C350.786 349.16 351.146 348.48 351.866 347.84C352.586 347.173 353.533 346.64 354.706 346.24C355.906 345.84 357.16 345.64 358.466 345.64C361 345.64 362.986 346.267 364.426 347.52C365.893 348.773 366.626 350.507 366.626 352.72V363.68C366.626 364.613 366.36 365.293 365.826 365.72C365.293 366.147 364.453 366.36 363.306 366.36V364.48C363.866 363.893 364.173 363.547 364.226 363.44L364.066 363.28C362.333 365.333 360.093 366.36 357.346 366.36ZM357.946 363.6C359.6 363.6 360.893 363.253 361.826 362.56C362.786 361.867 363.266 360.907 363.266 359.68C363.266 358.453 362.8 357.48 361.866 356.76C360.933 356.04 359.653 355.68 358.026 355.68C356.506 355.68 355.306 356.04 354.426 356.76C353.573 357.453 353.146 358.427 353.146 359.68C353.146 360.933 353.56 361.907 354.386 362.6C355.24 363.267 356.426 363.6 357.946 363.6ZM378.198 366.36C376.304 366.36 374.891 365.827 373.958 364.76C373.024 363.667 372.558 362.24 372.558 360.48V348.8H368.838C368.838 347.893 369.038 347.2 369.438 346.72C369.838 346.24 370.384 346 371.078 346H372.598V342.2C372.598 341.32 372.878 340.68 373.438 340.28C374.024 339.853 374.891 339.64 376.038 339.64V346H381.358C381.358 347.867 380.518 348.8 378.838 348.8H376.078V360.36C376.078 361.427 376.264 362.187 376.638 362.64C377.038 363.067 377.744 363.28 378.758 363.28C379.691 363.28 380.571 363.04 381.398 362.56C381.744 362.907 381.918 363.373 381.918 363.96C381.918 364.6 381.584 365.16 380.918 365.64C380.251 366.12 379.344 366.36 378.198 366.36ZM394.136 366.36C392.509 366.36 391.056 366.067 389.776 365.48C388.496 364.893 387.496 364.067 386.776 363C386.083 361.933 385.736 360.72 385.736 359.36V352.88C385.736 351.467 386.083 350.213 386.776 349.12C387.496 348.027 388.483 347.173 389.736 346.56C390.989 345.947 392.429 345.64 394.056 345.64C395.576 345.64 396.923 345.867 398.096 346.32C399.296 346.747 400.229 347.36 400.896 348.16C401.563 348.96 401.896 349.867 401.896 350.88C401.896 351.547 401.629 352.093 401.096 352.52C400.589 352.92 399.923 353.093 399.096 353.04C399.096 351.76 398.629 350.72 397.696 349.92C396.789 349.12 395.603 348.72 394.136 348.72C392.669 348.72 391.483 349.12 390.576 349.92C389.669 350.693 389.216 351.707 389.216 352.96V359.2C389.216 360.4 389.683 361.387 390.616 362.16C391.549 362.907 392.749 363.28 394.216 363.28C395.683 363.28 396.869 362.88 397.776 362.08C398.709 361.28 399.176 360.253 399.176 359C400.029 358.947 400.709 359.12 401.216 359.52C401.749 359.893 402.016 360.427 402.016 361.12C402.016 362.133 401.683 363.04 401.016 363.84C400.349 364.64 399.416 365.267 398.216 365.72C397.016 366.147 395.656 366.36 394.136 366.36ZM406.605 340.6C406.605 339.64 406.898 338.907 407.485 338.4C408.071 337.893 408.938 337.64 410.085 337.64V348.16C409.711 348.587 409.418 348.96 409.205 349.28L409.365 349.44C410.191 348.32 411.231 347.413 412.485 346.72C413.738 346 415.098 345.64 416.565 345.64C418.725 345.64 420.431 346.28 421.685 347.56C422.938 348.84 423.565 350.493 423.565 352.52V363.8C423.565 364.68 423.271 365.333 422.685 365.76C422.125 366.16 421.258 366.36 420.085 366.36V352.88C420.085 351.6 419.725 350.587 419.005 349.84C418.285 349.093 417.191 348.72 415.725 348.72C414.738 348.72 413.805 348.933 412.925 349.36C412.071 349.76 411.378 350.32 410.845 351.04C410.338 351.733 410.085 352.493 410.085 353.32V363.8C410.085 364.68 409.791 365.333 409.205 365.76C408.645 366.16 407.778 366.36 406.605 366.36V340.6Z" fill="#FF4320"/>
<path d="M306.94 141.18C305.753 141.18 304.693 140.953 303.76 140.5C302.84 140.047 302.12 139.413 301.6 138.6C301.08 137.787 300.82 136.86 300.82 135.82V132.14C300.82 131.1 301.073 130.18 301.58 129.38C302.1 128.567 302.813 127.94 303.72 127.5C304.627 127.047 305.667 126.82 306.84 126.82C308.013 126.82 309.053 127 309.96 127.36C310.88 127.707 311.593 128.2 312.1 128.84C312.607 129.467 312.86 130.187 312.86 131C312.86 131.493 312.693 131.887 312.36 132.18C312.04 132.46 311.607 132.6 311.06 132.6C310.793 132.6 310.5 132.56 310.18 132.48C310.207 132.16 310.22 131.847 310.22 131.54C310.22 130.833 309.907 130.26 309.28 129.82C308.653 129.38 307.84 129.16 306.84 129.16C305.853 129.16 305.047 129.44 304.42 130C303.807 130.547 303.5 131.26 303.5 132.14V135.82C303.5 136.713 303.82 137.44 304.46 138C305.1 138.56 305.927 138.84 306.94 138.84C307.94 138.84 308.753 138.62 309.38 138.18C310.007 137.74 310.32 137.173 310.32 136.48C310.32 136.16 310.307 135.853 310.28 135.56C310.613 135.493 310.893 135.46 311.12 135.46C311.68 135.46 312.127 135.607 312.46 135.9C312.793 136.193 312.96 136.593 312.96 137.1C312.96 137.887 312.707 138.593 312.2 139.22C311.693 139.833 310.98 140.313 310.06 140.66C309.153 141.007 308.113 141.18 306.94 141.18ZM320.411 141.18C319.318 141.18 318.318 140.967 317.411 140.54C316.504 140.1 315.784 139.507 315.251 138.76C314.731 138.013 314.471 137.2 314.471 136.32V131.66C314.471 130.78 314.731 129.973 315.251 129.24C315.784 128.493 316.504 127.907 317.411 127.48C318.318 127.04 319.318 126.82 320.411 126.82C321.504 126.82 322.504 127.04 323.411 127.48C324.331 127.907 325.051 128.493 325.571 129.24C326.104 129.973 326.371 130.78 326.371 131.66V136.32C326.371 137.2 326.104 138.013 325.571 138.76C325.051 139.507 324.331 140.1 323.411 140.54C322.504 140.967 321.504 141.18 320.411 141.18ZM320.411 138.84C321.411 138.84 322.211 138.607 322.811 138.14C323.411 137.66 323.711 137.04 323.711 136.28V131.72C323.711 130.947 323.411 130.327 322.811 129.86C322.211 129.38 321.411 129.14 320.411 129.14C319.424 129.14 318.631 129.38 318.031 129.86C317.431 130.327 317.131 130.947 317.131 131.72V136.28C317.131 137.04 317.431 137.66 318.031 138.14C318.631 138.607 319.424 138.84 320.411 138.84ZM329.649 141C329.276 141 328.956 140.887 328.689 140.66C328.436 140.42 328.309 140.127 328.309 139.78V128.22C328.309 127.873 328.436 127.587 328.689 127.36C328.942 127.12 329.262 127 329.649 127H334.089C335.276 127 336.322 127.227 337.229 127.68C338.149 128.133 338.856 128.773 339.349 129.6C339.856 130.413 340.109 131.347 340.109 132.4V135.56C340.109 136.613 339.856 137.553 339.349 138.38C338.842 139.207 338.129 139.853 337.209 140.32C336.302 140.773 335.262 141 334.089 141H329.649ZM333.889 138.7C335.049 138.7 335.929 138.44 336.529 137.92C337.129 137.387 337.429 136.607 337.429 135.58V132.36C337.429 131.36 337.129 130.6 336.529 130.08C335.929 129.56 335.049 129.3 333.889 129.3H330.989V138.7H333.889ZM342.118 128.22C342.118 127.887 342.244 127.6 342.498 127.36C342.764 127.12 343.084 127 343.458 127H352.378C352.378 127.8 352.238 128.387 351.957 128.76C351.691 129.12 351.251 129.3 350.638 129.3H344.798V132.78H350.118C350.118 133.58 349.978 134.167 349.698 134.54C349.431 134.9 348.991 135.08 348.378 135.08H344.798V138.7H351.058C351.658 138.7 352.091 138.887 352.358 139.26C352.638 139.62 352.778 140.2 352.778 141H343.458C343.084 141 342.764 140.887 342.498 140.66C342.244 140.42 342.118 140.127 342.118 139.78V128.22Z" fill="#00D674"/>
<path d="M182.94 167.18C181.753 167.18 180.693 166.953 179.76 166.5C178.84 166.047 178.12 165.413 177.6 164.6C177.08 163.787 176.82 162.86 176.82 161.82V158.14C176.82 157.1 177.073 156.18 177.58 155.38C178.1 154.567 178.813 153.94 179.72 153.5C180.627 153.047 181.667 152.82 182.84 152.82C184.013 152.82 185.053 153 185.96 153.36C186.88 153.707 187.593 154.2 188.1 154.84C188.607 155.467 188.86 156.187 188.86 157C188.86 157.493 188.693 157.887 188.36 158.18C188.04 158.46 187.607 158.6 187.06 158.6C186.793 158.6 186.5 158.56 186.18 158.48C186.207 158.16 186.22 157.847 186.22 157.54C186.22 156.833 185.907 156.26 185.28 155.82C184.653 155.38 183.84 155.16 182.84 155.16C181.853 155.16 181.047 155.44 180.42 156C179.807 156.547 179.5 157.26 179.5 158.14V161.82C179.5 162.713 179.82 163.44 180.46 164C181.1 164.56 181.927 164.84 182.94 164.84C183.94 164.84 184.753 164.62 185.38 164.18C186.007 163.74 186.32 163.173 186.32 162.48C186.32 162.16 186.307 161.853 186.28 161.56C186.613 161.493 186.893 161.46 187.12 161.46C187.68 161.46 188.127 161.607 188.46 161.9C188.793 162.193 188.96 162.593 188.96 163.1C188.96 163.887 188.707 164.593 188.2 165.22C187.693 165.833 186.98 166.313 186.06 166.66C185.153 167.007 184.113 167.18 182.94 167.18ZM196.411 167.18C195.318 167.18 194.318 166.967 193.411 166.54C192.504 166.1 191.784 165.507 191.251 164.76C190.731 164.013 190.471 163.2 190.471 162.32V157.66C190.471 156.78 190.731 155.973 191.251 155.24C191.784 154.493 192.504 153.907 193.411 153.48C194.318 153.04 195.318 152.82 196.411 152.82C197.504 152.82 198.504 153.04 199.411 153.48C200.331 153.907 201.051 154.493 201.571 155.24C202.104 155.973 202.371 156.78 202.371 157.66V162.32C202.371 163.2 202.104 164.013 201.571 164.76C201.051 165.507 200.331 166.1 199.411 166.54C198.504 166.967 197.504 167.18 196.411 167.18ZM196.411 164.84C197.411 164.84 198.211 164.607 198.811 164.14C199.411 163.66 199.711 163.04 199.711 162.28V157.72C199.711 156.947 199.411 156.327 198.811 155.86C198.211 155.38 197.411 155.14 196.411 155.14C195.424 155.14 194.631 155.38 194.031 155.86C193.431 156.327 193.131 156.947 193.131 157.72V162.28C193.131 163.04 193.431 163.66 194.031 164.14C194.631 164.607 195.424 164.84 196.411 164.84ZM204.309 154.82C204.309 154.207 204.549 153.72 205.029 153.36C205.509 152.987 206.162 152.8 206.989 152.8L211.189 163.36L210.729 164.62L210.929 164.7L215.429 152.82C216.242 152.82 216.889 153.007 217.369 153.38C217.862 153.74 218.109 154.227 218.109 154.84V167.18C216.362 167.18 215.489 166.527 215.489 165.22V158.82L216.169 156.98L215.949 156.9L212.289 166.46C212.196 166.673 212.049 166.847 211.849 166.98C211.662 167.113 211.449 167.18 211.209 167.18C210.969 167.18 210.749 167.113 210.549 166.98C210.362 166.847 210.222 166.667 210.129 166.44L206.469 156.88L206.249 156.96L206.909 158.8V165.22C206.909 166.527 206.042 167.18 204.309 167.18V154.82ZM220.461 154.82C220.461 154.207 220.701 153.72 221.181 153.36C221.661 152.987 222.315 152.8 223.141 152.8L227.341 163.36L226.881 164.62L227.081 164.7L231.581 152.82C232.395 152.82 233.041 153.007 233.521 153.38C234.015 153.74 234.261 154.227 234.261 154.84V167.18C232.515 167.18 231.641 166.527 231.641 165.22V158.82L232.321 156.98L232.101 156.9L228.441 166.46C228.348 166.673 228.201 166.847 228.001 166.98C227.815 167.113 227.601 167.18 227.361 167.18C227.121 167.18 226.901 167.113 226.701 166.98C226.515 166.847 226.375 166.667 226.281 166.44L222.621 156.88L222.401 156.96L223.061 158.8V165.22C223.061 166.527 222.195 167.18 220.461 167.18V154.82ZM242.414 167.18C241.294 167.18 240.28 166.953 239.374 166.5C238.48 166.047 237.78 165.42 237.274 164.62C236.767 163.82 236.514 162.913 236.514 161.9V154.8C236.514 154.16 236.74 153.673 237.194 153.34C237.647 152.993 238.314 152.82 239.194 152.82V161.9C239.194 162.793 239.487 163.507 240.074 164.04C240.66 164.573 241.44 164.84 242.414 164.84C243.387 164.84 244.167 164.573 244.754 164.04C245.34 163.507 245.634 162.793 245.634 161.9V154.8C245.634 154.147 245.86 153.653 246.314 153.32C246.767 152.987 247.434 152.82 248.314 152.82V161.9C248.314 162.913 248.06 163.82 247.554 164.62C247.047 165.42 246.34 166.047 245.434 166.5C244.54 166.953 243.534 167.18 242.414 167.18ZM250.559 154.94C250.559 154.287 250.779 153.773 251.219 153.4C251.659 153.013 252.252 152.82 252.999 152.82L259.759 163.38L259.959 163.22L259.139 161.86V152.82C260.006 152.82 260.659 152.987 261.099 153.32C261.552 153.653 261.779 154.147 261.779 154.8V165.36C261.779 165.853 261.566 166.28 261.139 166.64C260.726 167 260.246 167.18 259.699 167.18L252.579 156.04L252.379 156.22L253.199 157.58V165.2C253.199 165.853 252.972 166.347 252.519 166.68C252.079 167.013 251.426 167.18 250.559 167.18V154.94ZM264.514 154.82C264.514 154.193 264.747 153.707 265.214 153.36C265.68 153 266.34 152.82 267.194 152.82V165.18C267.194 165.82 266.96 166.313 266.494 166.66C266.027 167.007 265.367 167.18 264.514 167.18V154.82ZM275.694 167.18C274.507 167.18 273.447 166.953 272.514 166.5C271.594 166.047 270.874 165.413 270.354 164.6C269.834 163.787 269.574 162.86 269.574 161.82V158.14C269.574 157.1 269.827 156.18 270.334 155.38C270.854 154.567 271.567 153.94 272.474 153.5C273.381 153.047 274.421 152.82 275.594 152.82C276.767 152.82 277.807 153 278.714 153.36C279.634 153.707 280.347 154.2 280.854 154.84C281.361 155.467 281.614 156.187 281.614 157C281.614 157.493 281.447 157.887 281.114 158.18C280.794 158.46 280.361 158.6 279.814 158.6C279.547 158.6 279.254 158.56 278.934 158.48C278.961 158.16 278.974 157.847 278.974 157.54C278.974 156.833 278.661 156.26 278.034 155.82C277.407 155.38 276.594 155.16 275.594 155.16C274.607 155.16 273.801 155.44 273.174 156C272.561 156.547 272.254 157.26 272.254 158.14V161.82C272.254 162.713 272.574 163.44 273.214 164C273.854 164.56 274.681 164.84 275.694 164.84C276.694 164.84 277.507 164.62 278.134 164.18C278.761 163.74 279.074 163.173 279.074 162.48C279.074 162.16 279.061 161.853 279.034 161.56C279.367 161.493 279.647 161.46 279.874 161.46C280.434 161.46 280.881 161.607 281.214 161.9C281.547 162.193 281.714 162.593 281.714 163.1C281.714 163.887 281.461 164.593 280.954 165.22C280.447 165.833 279.734 166.313 278.814 166.66C277.907 167.007 276.867 167.18 275.694 167.18ZM285.065 167.18C284.492 167.113 284.038 166.913 283.705 166.58C283.385 166.247 283.225 165.827 283.225 165.32C283.225 164.933 283.318 164.533 283.505 164.12L288.085 153.7C288.338 153.113 288.778 152.82 289.405 152.82C290.018 152.82 290.452 153.113 290.705 153.7L295.285 164.12C295.472 164.56 295.565 164.96 295.565 165.32C295.565 165.827 295.398 166.247 295.065 166.58C294.745 166.913 294.292 167.113 293.705 167.18L292.025 163.38H286.765L285.065 167.18ZM291.205 161.1L289.005 155.62L288.765 155.72L289.245 156.96L287.565 161.1H291.205ZM299.446 155.32H294.626C294.626 153.773 295.326 153 296.726 153H306.946C306.946 154.547 306.24 155.32 304.826 155.32H302.126V165.2C302.126 165.84 301.9 166.333 301.446 166.68C300.993 167.013 300.326 167.18 299.446 167.18V155.32ZM308.664 154.22C308.664 153.887 308.791 153.6 309.044 153.36C309.311 153.12 309.631 153 310.004 153H318.924C318.924 153.8 318.784 154.387 318.504 154.76C318.238 155.12 317.798 155.3 317.184 155.3H311.344V158.78H316.664C316.664 159.58 316.524 160.167 316.244 160.54C315.978 160.9 315.538 161.08 314.924 161.08H311.344V164.7H317.604C318.204 164.7 318.638 164.887 318.904 165.26C319.184 165.62 319.324 166.2 319.324 167H310.004C309.631 167 309.311 166.887 309.044 166.66C308.791 166.42 308.664 166.127 308.664 165.78V154.22Z" fill="#7255EE"/>
<path d="M235.68 196.18C234.48 196.18 233.433 196.033 232.54 195.74C231.647 195.447 230.96 195.033 230.48 194.5C230.013 193.953 229.78 193.32 229.78 192.6C229.78 191.507 230.52 190.96 232 190.96C232.053 191.973 232.393 192.74 233.02 193.26C233.66 193.78 234.553 194.04 235.7 194.04C236.647 194.04 237.38 193.88 237.9 193.56C238.42 193.227 238.68 192.767 238.68 192.18C238.68 191.793 238.58 191.48 238.38 191.24C238.18 190.987 237.84 190.767 237.36 190.58C236.88 190.38 236.18 190.18 235.26 189.98C233.953 189.673 232.92 189.333 232.16 188.96C231.413 188.587 230.873 188.14 230.54 187.62C230.207 187.087 230.04 186.427 230.04 185.64C230.04 184.88 230.26 184.213 230.7 183.64C231.153 183.067 231.787 182.62 232.6 182.3C233.427 181.98 234.373 181.82 235.44 181.82C236.467 181.82 237.38 181.96 238.18 182.24C238.993 182.507 239.627 182.887 240.08 183.38C240.547 183.873 240.78 184.44 240.78 185.08C240.78 186.067 240.067 186.58 238.64 186.62C238.56 185.7 238.267 185.027 237.76 184.6C237.253 184.173 236.48 183.96 235.44 183.96C234.547 183.96 233.86 184.107 233.38 184.4C232.9 184.693 232.66 185.107 232.66 185.64C232.66 186.013 232.753 186.327 232.94 186.58C233.127 186.82 233.44 187.033 233.88 187.22C234.32 187.393 234.947 187.573 235.76 187.76C237.133 188.067 238.22 188.413 239.02 188.8C239.82 189.173 240.4 189.633 240.76 190.18C241.12 190.713 241.3 191.373 241.3 192.16C241.3 192.973 241.067 193.687 240.6 194.3C240.147 194.9 239.493 195.367 238.64 195.7C237.8 196.02 236.813 196.18 235.68 196.18ZM246.528 184.32H241.708C241.708 182.773 242.408 182 243.808 182H254.028C254.028 183.547 253.322 184.32 251.908 184.32H249.208V194.2C249.208 194.84 248.982 195.333 248.528 195.68C248.075 196.013 247.408 196.18 246.528 196.18V184.32ZM254.901 196.18C254.327 196.113 253.874 195.913 253.541 195.58C253.221 195.247 253.061 194.827 253.061 194.32C253.061 193.933 253.154 193.533 253.341 193.12L257.921 182.7C258.174 182.113 258.614 181.82 259.241 181.82C259.854 181.82 260.287 182.113 260.541 182.7L265.121 193.12C265.307 193.56 265.401 193.96 265.401 194.32C265.401 194.827 265.234 195.247 264.901 195.58C264.581 195.913 264.127 196.113 263.541 196.18L261.861 192.38H256.601L254.901 196.18ZM261.041 190.1L258.841 184.62L258.601 184.72L259.081 185.96L257.401 190.1H261.041ZM267.348 183.22C267.348 182.887 267.475 182.6 267.728 182.36C267.995 182.12 268.315 182 268.688 182H277.748C277.748 182.8 277.608 183.387 277.328 183.76C277.061 184.12 276.621 184.3 276.008 184.3H270.028V187.68H275.348C275.348 188.48 275.208 189.067 274.928 189.44C274.661 189.8 274.221 189.98 273.608 189.98H270.028V194.28C270.028 194.947 269.815 195.433 269.388 195.74C268.961 196.033 268.281 196.18 267.348 196.18V183.22ZM279.633 183.22C279.633 182.887 279.76 182.6 280.013 182.36C280.28 182.12 280.6 182 280.973 182H290.033C290.033 182.8 289.893 183.387 289.613 183.76C289.346 184.12 288.906 184.3 288.293 184.3H282.313V187.68H287.633C287.633 188.48 287.493 189.067 287.213 189.44C286.946 189.8 286.506 189.98 285.893 189.98H282.313V194.28C282.313 194.947 282.1 195.433 281.673 195.74C281.246 196.033 280.566 196.18 279.633 196.18V183.22Z" fill="#2F96FD"/>
<path d="M254.02 633.18C253.34 633.18 252.7 633.08 252.1 632.88C251.5 632.667 251.013 632.367 250.64 631.98C250.28 631.593 250.1 631.14 250.1 630.62C250.1 629.98 250.487 629.633 251.26 629.58C251.393 630.327 251.707 630.88 252.2 631.24C252.707 631.587 253.347 631.76 254.12 631.76C254.893 631.76 255.493 631.647 255.92 631.42C256.347 631.193 256.56 630.847 256.56 630.38C256.56 630.047 256.473 629.78 256.3 629.58C256.127 629.367 255.847 629.187 255.46 629.04C255.087 628.88 254.547 628.727 253.84 628.58C252.96 628.38 252.26 628.167 251.74 627.94C251.22 627.713 250.82 627.413 250.54 627.04C250.273 626.667 250.14 626.173 250.14 625.56C250.14 625.04 250.3 624.573 250.62 624.16C250.94 623.733 251.38 623.407 251.94 623.18C252.513 622.94 253.16 622.82 253.88 622.82C254.547 622.82 255.173 622.913 255.76 623.1C256.36 623.287 256.84 623.553 257.2 623.9C257.573 624.247 257.76 624.647 257.76 625.1C257.76 625.407 257.64 625.653 257.4 625.84C257.16 626.013 256.827 626.113 256.4 626.14C256.36 625.553 256.12 625.093 255.68 624.76C255.253 624.413 254.653 624.24 253.88 624.24C253.24 624.24 252.733 624.36 252.36 624.6C251.987 624.84 251.8 625.16 251.8 625.56C251.8 625.987 251.973 626.307 252.32 626.52C252.68 626.72 253.287 626.913 254.14 627.1C255.54 627.38 256.567 627.767 257.22 628.26C257.887 628.74 258.22 629.427 258.22 630.32C258.22 631.227 257.853 631.933 257.12 632.44C256.387 632.933 255.353 633.18 254.02 633.18ZM261.837 621.32C261.464 621.32 261.151 621.2 260.897 620.96C260.644 620.72 260.517 620.42 260.517 620.06C260.517 619.7 260.644 619.407 260.897 619.18C261.151 618.94 261.464 618.82 261.837 618.82C262.197 618.82 262.504 618.94 262.757 619.18C263.011 619.407 263.137 619.7 263.137 620.06C263.137 620.42 263.011 620.72 262.757 620.96C262.504 621.2 262.197 621.32 261.837 621.32ZM260.957 624.1C260.957 623.66 261.097 623.34 261.377 623.14C261.671 622.927 262.111 622.82 262.697 622.82V631.9C262.697 632.34 262.551 632.667 262.257 632.88C261.977 633.08 261.544 633.18 260.957 633.18V624.1ZM265.947 624.3C265.947 623.313 266.507 622.82 267.627 622.82V624.1C267.507 624.22 267.367 624.4 267.207 624.64L267.287 624.72C267.687 624.16 268.207 623.707 268.847 623.36C269.487 623 270.18 622.82 270.927 622.82C272.007 622.82 272.86 623.14 273.487 623.78C274.114 624.42 274.427 625.247 274.427 626.26V631.9C274.427 632.34 274.28 632.667 273.987 632.88C273.707 633.08 273.274 633.18 272.687 633.18V626.44C272.687 625.8 272.507 625.293 272.147 624.92C271.787 624.547 271.24 624.36 270.507 624.36C270.014 624.36 269.547 624.467 269.107 624.68C268.68 624.88 268.334 625.16 268.067 625.52C267.814 625.867 267.687 626.247 267.687 626.66V631.9C267.687 632.34 267.54 632.667 267.247 632.88C266.967 633.08 266.534 633.18 265.947 633.18V624.3ZM281.021 633.18C280.208 633.18 279.481 633.033 278.841 632.74C278.201 632.447 277.701 632.033 277.341 631.5C276.994 630.967 276.821 630.36 276.821 629.68V626.44C276.821 625.733 276.994 625.107 277.341 624.56C277.701 624.013 278.194 623.587 278.821 623.28C279.448 622.973 280.168 622.82 280.981 622.82C281.741 622.82 282.414 622.933 283.001 623.16C283.601 623.373 284.068 623.68 284.401 624.08C284.734 624.48 284.901 624.933 284.901 625.44C284.901 625.773 284.768 626.047 284.501 626.26C284.248 626.46 283.914 626.547 283.501 626.52C283.501 625.88 283.268 625.36 282.801 624.96C282.348 624.56 281.754 624.36 281.021 624.36C280.288 624.36 279.694 624.56 279.241 624.96C278.788 625.347 278.561 625.853 278.561 626.48V629.6C278.561 630.2 278.794 630.693 279.261 631.08C279.728 631.453 280.328 631.64 281.061 631.64C281.794 631.64 282.388 631.44 282.841 631.04C283.308 630.64 283.541 630.127 283.541 629.5C283.968 629.473 284.308 629.56 284.561 629.76C284.828 629.947 284.961 630.213 284.961 630.56C284.961 631.067 284.794 631.52 284.461 631.92C284.128 632.32 283.661 632.633 283.061 632.86C282.461 633.073 281.781 633.18 281.021 633.18ZM291.275 633.18C290.462 633.18 289.735 633.027 289.095 632.72C288.455 632.4 287.955 631.967 287.595 631.42C287.235 630.86 287.055 630.233 287.055 629.54V626.58C287.055 625.873 287.242 625.233 287.615 624.66C288.002 624.087 288.515 623.64 289.155 623.32C289.809 622.987 290.515 622.82 291.275 622.82C292.035 622.82 292.729 622.98 293.355 623.3C293.995 623.62 294.495 624.06 294.855 624.62C295.229 625.18 295.415 625.813 295.415 626.52V627.8C295.415 628.013 295.335 628.193 295.175 628.34C295.015 628.487 294.822 628.56 294.595 628.56H288.755V629.46C288.755 630.14 288.969 630.687 289.395 631.1C289.835 631.513 290.462 631.72 291.275 631.72C292.089 631.72 292.709 631.54 293.135 631.18C293.562 630.82 293.775 630.333 293.775 629.72C294.175 629.693 294.509 629.773 294.775 629.96C295.055 630.133 295.195 630.393 295.195 630.74C295.195 631.167 295.009 631.567 294.635 631.94C294.275 632.313 293.795 632.613 293.195 632.84C292.595 633.067 291.955 633.18 291.275 633.18ZM293.795 627.2V626.52C293.795 625.853 293.562 625.313 293.095 624.9C292.642 624.473 292.035 624.26 291.275 624.26C290.515 624.26 289.902 624.473 289.435 624.9C288.982 625.313 288.755 625.853 288.755 626.52V627.2H293.795ZM298.544 633.18C298.171 633.18 297.858 633.06 297.604 632.82C297.351 632.567 297.224 632.253 297.224 631.88C297.224 631.507 297.351 631.193 297.604 630.94C297.858 630.687 298.171 630.56 298.544 630.56C298.904 630.56 299.218 630.693 299.484 630.96C299.751 631.213 299.884 631.52 299.884 631.88C299.884 632.24 299.751 632.547 299.484 632.8C299.218 633.053 298.904 633.18 298.544 633.18ZM307.694 633C307.427 633 307.214 632.927 307.054 632.78C306.907 632.633 306.834 632.433 306.834 632.18C306.834 631.153 307.227 630.193 308.014 629.3C308.8 628.407 310.034 627.52 311.714 626.64C312.674 626.133 313.4 625.7 313.894 625.34C314.4 624.967 314.747 624.6 314.934 624.24C315.134 623.867 315.234 623.427 315.234 622.92C315.234 622.133 314.974 621.533 314.454 621.12C313.947 620.707 313.2 620.5 312.214 620.5C311.147 620.5 310.314 620.753 309.714 621.26C309.127 621.767 308.834 622.473 308.834 623.38C308.834 623.62 308.854 623.873 308.894 624.14L308.654 624.16C308.174 624.16 307.767 624.02 307.434 623.74C307.1 623.46 306.934 623.113 306.934 622.7C306.934 621.98 307.167 621.327 307.634 620.74C308.1 620.14 308.734 619.673 309.534 619.34C310.347 618.993 311.24 618.82 312.214 618.82C313.214 618.82 314.087 618.987 314.834 619.32C315.58 619.653 316.154 620.133 316.554 620.76C316.954 621.373 317.154 622.093 317.154 622.92C317.154 623.867 316.807 624.72 316.114 625.48C315.434 626.24 314.28 627.047 312.654 627.9C310.294 629.153 309.047 630.307 308.914 631.36H315.774C316.28 631.36 316.667 631.5 316.934 631.78C317.2 632.06 317.334 632.467 317.334 633H307.694ZM324.798 633.18C323.825 633.18 322.925 632.993 322.098 632.62C321.285 632.233 320.638 631.72 320.158 631.08C319.678 630.427 319.438 629.707 319.438 628.92V623.08C319.438 622.293 319.672 621.58 320.138 620.94C320.618 620.287 321.265 619.773 322.078 619.4C322.905 619.013 323.812 618.82 324.798 618.82C325.785 618.82 326.685 619.013 327.498 619.4C328.325 619.773 328.972 620.287 329.438 620.94C329.918 621.58 330.158 622.293 330.158 623.08V628.92C330.158 629.707 329.918 630.427 329.438 631.08C328.958 631.72 328.305 632.233 327.478 632.62C326.665 632.993 325.772 633.18 324.798 633.18ZM324.798 631.5C325.825 631.5 326.658 631.26 327.298 630.78C327.952 630.287 328.278 629.653 328.278 628.88V623.12C328.278 622.347 327.952 621.72 327.298 621.24C326.658 620.747 325.825 620.5 324.798 620.5C323.772 620.5 322.932 620.747 322.278 621.24C321.638 621.72 321.318 622.347 321.318 623.12V628.88C321.318 629.653 321.638 630.287 322.278 630.78C322.932 631.26 323.772 631.5 324.798 631.5ZM334.663 620.64H333.483C333.03 620.64 332.677 620.493 332.423 620.2C332.183 619.907 332.063 619.507 332.063 619H335.663C335.917 619 336.123 619.087 336.283 619.26C336.457 619.42 336.543 619.613 336.543 619.84V631.62C336.543 632.127 336.383 632.513 336.063 632.78C335.743 633.047 335.277 633.18 334.663 633.18V620.64ZM344.125 633.18C343.112 633.18 342.205 633.02 341.405 632.7C340.605 632.38 339.979 631.94 339.525 631.38C339.072 630.807 338.845 630.16 338.845 629.44C338.845 628.933 338.992 628.567 339.285 628.34C339.592 628.1 340.059 627.987 340.685 628C340.659 628.373 340.645 628.62 340.645 628.74C340.645 629.633 340.945 630.32 341.545 630.8C342.145 631.267 343.005 631.5 344.125 631.5C346.445 631.5 347.605 630.707 347.605 629.12C347.605 628.333 347.332 627.733 346.785 627.32C346.239 626.893 345.445 626.68 344.405 626.68H343.705C343.465 626.68 343.265 626.607 343.105 626.46C342.959 626.3 342.885 626.1 342.885 625.86C342.885 625.607 342.959 625.407 343.105 625.26C343.265 625.113 343.465 625.04 343.705 625.04H344.425C345.279 625.04 345.952 624.833 346.445 624.42C346.952 623.993 347.205 623.427 347.205 622.72C347.205 621.987 346.952 621.433 346.445 621.06C345.952 620.687 345.219 620.5 344.245 620.5C343.205 620.5 342.405 620.687 341.845 621.06C341.299 621.42 341.025 621.947 341.025 622.64C341.025 622.92 341.052 623.16 341.105 623.36C340.545 623.387 340.092 623.28 339.745 623.04C339.399 622.8 339.225 622.467 339.225 622.04C339.225 621.427 339.439 620.88 339.865 620.4C340.305 619.907 340.905 619.52 341.665 619.24C342.425 618.96 343.285 618.82 344.245 618.82C345.219 618.82 346.072 618.98 346.805 619.3C347.552 619.62 348.125 620.073 348.525 620.66C348.925 621.247 349.125 621.933 349.125 622.72C349.125 624.093 348.399 625.133 346.945 625.84C347.839 626.2 348.485 626.64 348.885 627.16C349.299 627.68 349.505 628.333 349.505 629.12C349.505 630.373 349.025 631.367 348.065 632.1C347.105 632.82 345.792 633.18 344.125 633.18Z" fill="white"/>
<path d="M526.95 63.46H525.18C524.5 63.46 523.97 63.24 523.59 62.8C523.23 62.36 523.05 61.76 523.05 61H528.45C528.83 61 529.14 61.13 529.38 61.39C529.64 61.63 529.77 61.92 529.77 62.26V79.93C529.77 80.69 529.53 81.27 529.05 81.67C528.57 82.07 527.87 82.27 526.95 82.27V63.46ZM541.713 82.27C540.253 82.27 538.903 81.99 537.663 81.43C536.443 80.85 535.473 80.08 534.753 79.12C534.033 78.14 533.673 77.06 533.673 75.88V67.12C533.673 65.94 534.023 64.87 534.723 63.91C535.443 62.93 536.413 62.16 537.633 61.6C538.873 61.02 540.233 60.73 541.713 60.73C543.193 60.73 544.543 61.02 545.763 61.6C547.003 62.16 547.973 62.93 548.673 63.91C549.393 64.87 549.753 65.94 549.753 67.12V75.88C549.753 77.06 549.393 78.14 548.673 79.12C547.953 80.08 546.973 80.85 545.733 81.43C544.513 81.99 543.173 82.27 541.713 82.27ZM541.713 79.75C543.253 79.75 544.503 79.39 545.463 78.67C546.443 77.93 546.933 76.98 546.933 75.82V67.18C546.933 66.02 546.443 65.08 545.463 64.36C544.503 63.62 543.253 63.25 541.713 63.25C540.173 63.25 538.913 63.62 537.933 64.36C536.973 65.08 536.493 66.02 536.493 67.18V75.82C536.493 76.98 536.973 77.93 537.933 78.67C538.913 79.39 540.173 79.75 541.713 79.75Z" fill="white"/>
<path d="M517.48 71.35C516.88 71.35 516.37 71.15 515.95 70.75C515.55 70.35 515.35 69.84 515.35 69.22C515.35 68.64 515.55 68.14 515.95 67.72C516.37 67.3 516.88 67.09 517.48 67.09C518.08 67.09 518.59 67.3 519.01 67.72C519.45 68.14 519.67 68.64 519.67 69.22C519.67 69.82 519.45 70.33 519.01 70.75C518.59 71.15 518.08 71.35 517.48 71.35ZM517.48 82.27C516.88 82.27 516.37 82.07 515.95 81.67C515.55 81.27 515.35 80.76 515.35 80.14C515.35 79.54 515.55 79.04 515.95 78.64C516.37 78.22 516.88 78.01 517.48 78.01C518.08 78.01 518.59 78.22 519.01 78.64C519.45 79.04 519.67 79.54 519.67 80.14C519.67 80.74 519.45 81.25 519.01 81.67C518.59 82.07 518.08 82.27 517.48 82.27Z" fill="white"/>
<rect x="185" y="650" width="230" height="10" rx="1" fill="white"/>
</svg>
